<?xml version="1.0" encoding="iso-8859-1"?>
<!-- Generator: Adobe Illustrator 19.0.0, SVG Export Plug-In . SVG Version: 6.00 Build 0)  -->
<svg version="1.1" id="Layer_1" xmlns="http://www.w3.org/2000/svg" xmlns:xlink="http://www.w3.org/1999/xlink" x="0px" y="0px"
	 viewBox="0 0 511.882 511.882" style="enable-background:new 0 0 511.882 511.882;" xml:space="preserve">
<path style="fill:#E6E9ED;" d="M437.239,501.212c0,5.89-4.78,10.67-10.685,10.67H85.312c-5.89,0-10.669-4.78-10.669-10.67V95.978
	c0-5.89,4.779-10.662,10.669-10.662h341.242c5.904,0,10.685,4.772,10.685,10.662V501.212z"/>
<polygon style="fill:#DA4453;" points="143.962,319.926 207.948,213.287 271.925,319.926 "/>
<polygon style="fill:#ED5564;" points="197.287,319.926 282.587,170.625 367.912,319.926 "/>
<g>
	<rect x="117.301" y="63.981" style="fill:#CCD1D9;" width="63.985" height="42.654"/>
	<rect x="330.571" y="63.981" style="fill:#CCD1D9;" width="63.985" height="42.654"/>
</g>
<g>
	<path style="fill:#434A54;" d="M298.584,447.897h-85.301c-5.89,0-10.67-4.78-10.67-10.67c0-5.889,4.78-10.653,10.67-10.653h85.301
		c5.904,0,10.685,4.765,10.685,10.653C309.268,443.117,304.488,447.897,298.584,447.897z"/>
	<path style="fill:#434A54;" d="M341.261,405.235h-170.64c-5.89,0-10.661-4.765-10.661-10.654c0-5.889,4.771-10.669,10.661-10.669
		h170.64c5.873,0,10.653,4.78,10.653,10.669C351.915,400.47,347.134,405.235,341.261,405.235z"/>
</g>
<g>
	<path style="fill:#FFCE54;" d="M373.253,10.662c0-5.89-4.78-10.662-10.686-10.662c-5.873,0-10.653,4.772-10.653,10.662l0,0l0,0
		v53.323h21.339V10.662L373.253,10.662L373.253,10.662z"/>
	<path style="fill:#FFCE54;" d="M159.96,10.662C159.96,4.772,155.188,0,149.298,0s-10.669,4.772-10.669,10.662l0,0l0,0v53.323
		h21.331L159.96,10.662L159.96,10.662L159.96,10.662z"/>
</g>
<g>
</g>
<g>
</g>
<g>
</g>
<g>
</g>
<g>
</g>
<g>
</g>
<g>
</g>
<g>
</g>
<g>
</g>
<g>
</g>
<g>
</g>
<g>
</g>
<g>
</g>
<g>
</g>
<g>
</g>
</svg>
